# xmcd
#
# Track frame offsets: 
#        161
#        23952
#        46694
#        64282
#        83968
#        109040
#        137960
#        159269
#        184644
#        207935
#        233596
#        260947
#
# Disc length: 3718 seconds
#
# Revision: 0
# Processed by: cddbd v1.5.2PL0 Copyright (c) Steve Scherf et al.
# Submitted via: ExactAudioCopy v0.99pb5
#
DISCID=a20e840c
DTITLE=Thanh Tuyen - Hai Ngoai Tuyen Chon 4(2014)
DYEAR=2014
DGENRE=Soul
TTITLE0=04. Xa Lo Khong Den - Thanh Tuyen
TTITLE1=09. Bac Trang Lua Hong - Thanh Tuyen
TTITLE2=Thuong Ve Vung Hoa Tuyen - Thanh Tuyen
TTITLE3=Gio Lanh Dem He - Thanh Tuyen
TTITLE4=02. Sao Anh Khong Ve - Thanh Tuyen
TTITLE5=07. Hoa Bien - Thanh Tuyen
TTITLE6=Chuyen Tau Hoang Hon - Thanh Tuyen
TTITLE7=04 - Cau Chuyen Dau Xuan
TTITLE8=Ba Thang Ta Tu - Thanh Tuyen
TTITLE9=01. Tua Canh Beo Troi - Thanh Tuyen
TTITLE10=09 - Thanh Tuyen - Gui Ve Anh
TTITLE11=10 - Thanh Tuyen - Nguoi Ngoai Pho
EXTD=
EXTT0=
EXTT1=
EXTT2=
EXTT3=
EXTT4=
EXTT5=
EXTT6=
EXTT7=
EXTT8=
EXTT9=
EXTT10=
EXTT11=
PLAYORDER=
